<?xml version="1.0" encoding="utf-8"?>
<!-- Generator: Adobe Illustrator 18.0.0, SVG Export Plug-In . SVG Version: 6.00 Build 0)  -->
<!DOCTYPE svg PUBLIC "-//W3C//DTD SVG 1.1//EN" "http://www.w3.org/Graphics/SVG/1.1/DTD/svg11.dtd">
<svg version="1.1" id="Layer_1" xmlns="http://www.w3.org/2000/svg" xmlns:xlink="http://www.w3.org/1999/xlink" x="0px" y="0px"
	 viewBox="0 51 1080 255" enable-background="new 0 51 1080 255" xml:space="preserve">
<g>
	<g>
		<path fill="#FFFFFF" d="M185.625,102.727c1.102,0.394,2.264,0.409,3.398,0.159c0.671-0.149,1.317-0.356,1.944-0.6l-7.853-4.531
			c-0.707,0.01-1.398,0.131-2.035,0.615c-0.285,0.217-0.364,0.364-0.119,0.701C182.167,100.741,183.672,102.03,185.625,102.727z"/>
		<path fill="#FFFFFF" d="M86.144,244.014l0.333,0.191c0.075-0.185,0.169-0.355,0.24-0.544
			C86.525,243.782,86.333,243.895,86.144,244.014z"/>
		<path fill="#FFFFFF" d="M149.517,63.394l-100.524,58.04v116.081l100.524,58.04l100.525-58.04V121.434L149.517,63.394z
			 M147.937,179.495c-0.735,0.104-1.441,0.021-2.15,0.095c-1.424,0.15-2.844,0.326-4.264,0.527
			c-2.494,0.355-4.563,1.549-6.402,3.191c-0.734,0.657-1.424,1.367-1.983,2.264c-0.212-0.421-0.372-0.796-0.58-1.141
			c-1.24-2.066-2.585-4.06-4.11-5.932c-1.409-1.729-2.797-3.467-4.453-4.979c-1.368-1.249-2.842-2.336-4.443-3.246
			c-2.91-1.653-6.062-2.528-9.39-2.734c-1.77-0.109-3.549-0.02-5.302,0.26c-1.75,0.279-3.473,0.694-5.156,1.262
			c-2.78,0.939-5.406,2.195-7.948,3.661c-2.248,1.296-4.234,2.874-5.925,4.84c-1.333,1.55-2.425,3.256-3.366,5.062
			c-1.089,2.084-1.94,4.269-2.631,6.516c-0.525,1.709-0.961,3.439-1.32,5.189c-0.231,1.124-0.437,2.25-0.618,3.384
			c-0.175,1.093-0.339,2.188-0.477,3.283c-0.12,0.964-0.2,1.935-0.286,2.903c-0.135,1.505-0.238,3.011-0.327,4.518
			c-0.054,0.936-0.116,1.872-0.086,2.812c0.002,0.071,0.003,0.144-0.084,0.174c0,0.515,0,1.029,0,1.542
			c0.161,0.101,0.089,0.264,0.08,0.389c-0.04,0.501,0.035,0.999,0.113,1.48c0.244,1.53,0.615,3.028,1.164,4.487
			c0.874,2.328,2.114,4.439,3.588,6.425c0.562,0.758,1.178,1.474,1.805,2.181c0.776,0.876,1.609,1.693,2.46,2.491
			c0.775,0.724,1.599,1.4,2.459,2.063c-1.063-0.077-2.03,0.237-2.979,0.625c-0.658,0.268-1.314,0.521-1.904,0.948
			c-0.981,0.714-1.311,1.715-1.38,2.841c-0.073,1.179,0.065,2.359-0.084,3.54c-0.046,0.366-0.124,0.714-0.208,1.061l-19.853-11.453
			V128.923l87.622-50.551l24.229,13.978c-0.9-0.161-1.805-0.29-2.723-0.315c-0.844-0.023-1.689,0.007-2.533-0.008
			c-0.739-0.012-1.473,0.079-2.193,0.193c-1.806,0.285-3.579,0.714-5.305,1.347c-2.189,0.805-4.261,1.839-6.23,3.081
			c-2.252,1.418-4.314,3.07-6.145,5.014c-0.842,0.896-1.637,1.828-2.396,2.794c-1.018,1.302-1.965,2.654-2.81,4.076
			c-0.129,0.218-0.173,0.155-0.324,0.057c-0.539-0.351-1.082-0.696-1.587-1.097c-1.55-1.231-3.307-2.021-5.237-2.427
			c-0.283-0.06-0.542,0.012-0.783,0.22c-0.625,0.538-0.975,1.239-1.261,1.987c-0.788,2.053-0.906,4.217-1.016,6.375
			c-0.07,1.401,0.048,2.798,0.241,4.19c0.183,1.318,0.47,2.608,0.844,3.885c0.652,2.227,1.581,4.334,2.759,6.328
			c0.249,0.421,0.248,0.743,0.112,1.203c-0.404,1.36-0.347,2.789-0.442,4.19c-0.105,1.564,0.078,3.129,0.1,4.695
			c0.007,0.605,0.024,1.219,0.068,1.826c0.104,1.449,0.235,2.897,0.333,4.347c0.082,1.216,0.119,2.436,0.154,3.651
			c0.04,1.377,0.05,2.758-0.042,4.141c-0.08,1.198-0.137,2.395-0.273,3.589c-0.118,1.032-0.284,2.056-0.481,3.072
			c-0.247,1.266-0.34,2.547-0.335,3.819c0.001,0.722,0.023,1.462,0.099,2.196c0.106,1.05,0.215,2.096,0.46,3.12
			c0.461,1.919,1.268,3.643,2.847,4.927c1.265,1.029,2.735,1.521,4.327,1.624c1.056,0.067,2.12,0.044,3.18-0.141
			c1.23-0.218,2.433-0.502,3.594-0.961c0.285-0.113,0.372-0.092,0.364,0.234c-0.017,0.649-0.005,1.294,0.127,1.942
			c0.292,1.413,0.969,2.579,2.195,3.563 M237.138,230.023l-87.621,50.552l-54.681-31.547c1.004-0.855,1.715-2.007,2.184-3.411
			c0.159-0.472,0.293-0.954,0.447-1.46c0.107,0.123,0.165,0.206,0.164,0.327c0,0.112,0.007,0.228,0.039,0.334
			c0.307,1.051,1.176,1.517,2.063,1.954c0.159,0.078,0.259-0.021,0.295-0.196c0.418-2.043,1.292-3.888,2.443-5.611
			c0.859-1.288,1.18-2.712,0.972-4.237c-0.092-0.674-0.273-1.341-0.592-1.954c-0.07-0.137-0.195-0.262,0.099-0.323
			c2.098-0.438,3.833-1.492,5.272-3.079c0.889-0.981,1.575-2.086,2.056-3.299c1.079-2.718,1.42-5.553,1.247-8.471
			c-0.083-1.415-0.392-2.774-0.849-4.096c-0.638-1.846-1.386-3.651-2.038-5.49c-0.677-1.911-1.256-3.85-1.422-5.893
			c-0.124-1.531-0.107-3.044,0.171-4.56c0.243-1.325,0.659-2.593,1.164-3.837c0.485-1.191,1.139-2.285,2.026-3.218
			c0.973-1.022,2.145-1.761,3.493-2.184c1.569-0.494,3.167-0.685,4.823-0.538c1.124,0.099,2.244,0.212,3.332,0.47
			c2.506,0.596,4.92,1.47,7.223,2.636c0.25,0.127,0.266,0.31,0.219,0.517c-0.18,0.788-0.212,1.595-0.23,2.392
			c-0.026,1.106-0.043,2.216,0.053,3.327c0.092,1.052,0.194,2.103,0.387,3.137c0.318,1.701,0.828,3.354,1.42,4.983
			c0.75,2.064,1.61,4.079,2.554,6.058c0.68,1.425,1.388,2.836,2.178,4.226c-0.073,0.02-0.11,0.037-0.148,0.038
			c-1.005,0.016-1.98,0.176-2.895,0.617c-0.164,0.079-0.28,0.158-0.32,0.391c-0.223,1.279-0.495,2.55-0.729,3.827
			c-0.197,1.073-0.371,2.152-0.542,3.229c-0.134,0.844-0.25,1.689-0.373,2.537c-0.134,0.929-0.298,1.855-0.391,2.789
			c-0.088,0.896-0.19,1.794-0.288,2.688c-0.144,1.306-0.262,2.614-0.299,3.919c-0.06,2.084-0.092,4.172,0.222,6.25
			c0.163,1.08,0.315,2.161,0.569,3.223c0.553,2.303,1.346,4.519,2.437,6.63c0.354,0.688,0.862,1.179,1.524,1.51
			c1.294,0.647,2.708,0.813,4.124,0.86c1.729,0.055,3.455-0.067,5.177-0.235c0.84-0.082,1.674-0.18,2.499-0.353
			c0.723-0.151,1.431-0.284,2.18-0.09c1.594,0.413,3.237,0.619,4.871,0.659c1.964,0.046,3.947,0.238,5.901-0.227
			c1.218-0.289,2.366-0.729,3.42-1.429c0.373-0.249,0.257-0.447,0.098-0.7c-0.918-1.457-1.721-2.976-2.452-4.538
			c-1.115-2.384-2.02-4.839-2.696-7.383c-0.461-1.734-0.771-3.495-0.983-5.274c-0.14-1.157-0.103-2.322-0.151-3.481
			c-0.081-1.916-0.012-3.834,0.135-5.75c0.091-1.209,0.221-2.408,0.444-3.596c0.323-1.724,0.787-3.409,1.601-4.964
			c1.68-3.204,3.033-6.511,3.559-10.118c0.036-0.24,0.02-0.552,0.388-0.675c0.501-0.169,0.982-0.399,1.462-0.63
			c1.601-0.775,3.164-1.622,4.722-2.484c1.234-0.683,2.358-1.517,3.399-2.465c1.006-0.916,1.865-1.963,2.535-3.149
			c0.19-0.333,0.294-0.289,0.597-0.146c0.826,0.386,1.71,0.573,2.625,0.673c1.026,0.111,2.062,0.141,3.067,0.035
			c1.643-0.173,3.174-0.754,4.489-1.803c0.134-0.106,0.242-0.124,0.389,0.021c0.354,0.351,0.674,0.727,0.986,1.112
			c0.688,0.85,1.084,1.859,1.533,2.836c0.467,1.012,0.886,2.048,1.134,3.145c0.146,0.649,0.187,1.331,0.551,1.92
			c0.913,1.473,2.157,2.618,3.563,3.595c1.551,1.077,3.252,1.844,5.066,2.372c1.734,0.504,3.517,0.711,5.313,0.795
			c0.564,0.026,1.132-0.027,1.697-0.061c1.075-0.064,2.119-0.232,3.118-0.623c1.571-0.617,2.3-1.675,2.441-3.174
			c0.093-0.979-0.122-1.93-0.406-2.865c-0.623-2.039-1.564-3.947-2.47-5.864c-0.849-1.792-2.033-3.346-3.528-4.678
			c-1.22-1.09-2.501-2.091-3.828-3.04c-1.639-1.172-3.299-2.313-5.072-3.271c-2.329-1.263-4.757-2.289-7.309-3.03
			c-2.228-0.649-4.485-1.096-6.815-1.259c0.153-0.607,0.298-1.212,0.327-1.847c0.012-0.252-0.017-0.576,0.275-0.805
			c1.689-1.321,3.438-2.56,5.186-3.798c2.205-1.563,4.409-3.124,6.557-4.766c0.244-0.187,0.393-0.217,0.639,0.038
			c1.036,1.078,2.128,2.102,3.119,3.224c0.67,0.759,1.355,1.507,1.94,2.338c0.996,1.416,2.25,2.53,3.827,3.263
			c2.023,0.938,4.181,1.229,6.375,1.34c0.892,0.044,1.779-0.032,2.665-0.156c1.298-0.183,2.54-0.537,3.729-1.071
			c1.808-0.81,3.361-1.972,4.669-3.458c0.522-0.593,0.895-1.239,0.849-2.082c-0.049-0.866-0.447-1.59-0.892-2.281
			c-1.211-1.882-2.718-3.516-4.342-5.05c-1.25-1.179-2.687-2.076-4.197-2.852c-1.929-0.992-3.964-1.736-6.055-2.302
			c-1.347-0.364-2.705-0.688-4.078-0.948c-1.223-0.231-2.461-0.394-3.7-0.55c-1.132-0.142-2.272-0.289-3.404-0.301
			c-2.017-0.022-4.038-0.164-6.052,0.142c-0.93,0.142-1.849,0.314-2.69,0.747c-1.087,0.56-1.995,1.334-2.801,2.265
			c-1.027,1.188-1.913,2.453-2.486,3.918c-0.063,0.161-0.096,0.155-0.209,0.098c-0.561-0.285-1.164-0.363-1.778-0.444
			c-0.249-0.032-0.597,0.075-0.769-0.283c-0.303-0.632-0.627-1.252-0.954-1.872c-0.672-1.276-1.377-2.533-2.106-3.777
			c-0.756-1.288-1.638-2.506-2.18-3.918c-0.688-1.798-1.004-3.65-0.936-5.572c0.006-0.189,0.068-0.258,0.249-0.239
			c0.28,0.03,0.563,0.098,0.84,0.079c1.375-0.094,2.745,0.201,4.124,0.018c0.729-0.097,1.473-0.025,2.213-0.074
			c1.126-0.076,2.25-0.148,3.355-0.371c1.888-0.382,3.56-1.181,4.867-2.649c0.144-0.162,0.162-0.284-0.003-0.43
			c-0.215-0.19-0.353-0.437-0.475-0.691c-0.589-1.237-0.794-2.574-0.839-3.915c-0.066-1.92-0.074-3.848,0.087-5.765
			c0.046-0.559-0.015-1.132,0.148-1.682c0.028-0.097,0.01-0.216,0.155-0.197c0.191,0.025,0.359-0.069,0.54-0.089
			c2.164-0.234,3.685-1.406,4.703-3.271c0.558-1.018,0.821-2.127,0.972-3.277c0.146-1.112,0.244-2.218-0.037-3.315
			c-0.207-0.806-0.926-1.53-1.862-1.469c-0.562,0.037-1.086,0.186-1.632,0.321c-0.008-0.95-0.167-1.853-0.377-2.738
			c-0.565-2.372-1.463-4.63-2.515-6.821c-0.863-1.8-1.832-3.547-3.309-4.943c-0.185-0.174-0.059-0.225,0.079-0.267
			c0.331-0.103,0.675-0.175,1.003-0.288c2.134-0.738,4.168-1.703,6.169-2.74c0.685-0.354,1.346-0.756,1.913-1.289
			c0.942-0.886,1.66-1.941,2.258-3.081c0.149-0.285,0.282-0.574,0.414-0.865l41.401,23.886L237.138,230.023L237.138,230.023z"/>
	</g>
</g>
<g enable-background="new    ">
	<path fill="#FFFFFF" d="M297.402,220.587v20.3h-20.58v-95.2h16.8l1.4,6.86h0.56c2.706-2.426,5.762-4.456,9.17-6.09
		c3.406-1.632,6.93-2.45,10.57-2.45c4.2,0,7.98,0.84,11.34,2.521c3.36,1.68,6.206,4.06,8.54,7.14c2.332,3.08,4.13,6.79,5.39,11.13
		c1.26,4.34,1.89,9.17,1.89,14.49c0,5.974-0.818,11.27-2.45,15.89c-1.634,4.62-3.828,8.54-6.58,11.76
		c-2.754,3.221-5.88,5.671-9.38,7.351s-7.118,2.52-10.85,2.52c-2.988,0-5.88-0.63-8.68-1.89c-2.8-1.26-5.414-3.056-7.84-5.39
		L297.402,220.587z M297.402,195.527c1.866,1.68,3.732,2.848,5.6,3.5c1.866,0.653,3.686,0.979,5.46,0.979
		c3.546,0,6.58-1.61,9.1-4.83s3.78-8.422,3.78-15.609c0-12.507-4.014-18.761-12.04-18.761c-4.014,0-7.98,2.101-11.9,6.301V195.527z"
		/>
	<path fill="#FFFFFF" d="M345.981,180.407c0-5.786,0.932-10.942,2.8-15.471c1.866-4.525,4.362-8.329,7.49-11.409
		c3.126-3.08,6.742-5.437,10.85-7.07c4.106-1.632,8.352-2.45,12.74-2.45c4.386,0,8.61,0.818,12.67,2.45
		c4.06,1.634,7.652,3.99,10.78,7.07c3.126,3.08,5.622,6.884,7.49,11.409c1.866,4.528,2.8,9.685,2.8,15.471
		c0,5.788-0.934,10.943-2.8,15.47c-1.868,4.528-4.364,8.33-7.49,11.41c-3.128,3.08-6.72,5.438-10.78,7.07
		c-4.06,1.632-8.284,2.449-12.67,2.449c-4.388,0-8.634-0.817-12.74-2.449c-4.108-1.633-7.724-3.99-10.85-7.07
		c-3.128-3.08-5.624-6.882-7.49-11.41C346.913,191.351,345.981,186.195,345.981,180.407z M367.122,180.407
		c0,6.067,1.05,10.874,3.15,14.42c2.1,3.548,5.296,5.319,9.59,5.319c4.2,0,7.372-1.771,9.52-5.319
		c2.146-3.546,3.22-8.353,3.22-14.42c0-6.066-1.074-10.872-3.22-14.42c-2.148-3.546-5.32-5.32-9.52-5.32
		c-4.294,0-7.49,1.774-9.59,5.32C368.171,169.535,367.122,174.341,367.122,180.407z"/>
	<path fill="#FFFFFF" d="M420.741,145.687h16.8l1.4,8.82h0.56c2.986-2.8,6.252-5.25,9.8-7.35c3.546-2.101,7.7-3.15,12.46-3.15
		c7.56,0,13.042,2.475,16.45,7.42c3.406,4.948,5.11,11.809,5.11,20.58v43.12h-20.58v-40.46c0-5.04-0.678-8.492-2.03-10.36
		c-1.354-1.865-3.524-2.8-6.51-2.8c-2.614,0-4.854,0.584-6.72,1.75c-1.868,1.168-3.92,2.824-6.16,4.97v46.9h-20.58V145.687z"/>
	<path fill="#FFFFFF" d="M497.599,225.767c0.84,0.187,1.632,0.28,2.38,0.28c3.452,0,6.112-0.84,7.98-2.52
		c1.866-1.681,3.266-3.874,4.2-6.58l0.98-3.641l-26.74-67.62h20.72l9.94,29.82c1.026,3.174,1.96,6.395,2.8,9.66
		c0.84,3.269,1.726,6.628,2.66,10.08h0.56c0.746-3.266,1.516-6.556,2.31-9.87c0.792-3.312,1.61-6.602,2.45-9.87l8.4-29.82h19.74
		l-24.08,70.141c-1.68,4.386-3.43,8.235-5.25,11.55c-1.82,3.312-3.92,6.066-6.3,8.26c-2.38,2.192-5.088,3.851-8.12,4.971
		c-3.034,1.119-6.604,1.68-10.71,1.68c-2.148,0-3.968-0.118-5.46-0.351c-1.494-0.233-2.94-0.584-4.34-1.05l3.64-15.68
		C496.011,225.393,496.759,225.579,497.599,225.767z"/>
	<path fill="#FFFFFF" d="M552.339,145.687h20.72l8.96,32.761c0.932,3.454,1.842,6.978,2.73,10.569
		c0.885,3.595,1.795,7.21,2.73,10.851h0.559c0.84-3.641,1.703-7.256,2.59-10.851c0.887-3.592,1.797-7.115,2.73-10.569l9.1-32.761
		h19.74l-22.68,69.44h-23.801L552.339,145.687z"/>
	<path fill="#FFFFFF" d="M636.198,135.467c-3.454,0-6.301-1.002-8.54-3.01c-2.24-2.006-3.36-4.596-3.36-7.771
		c0-3.172,1.12-5.739,3.36-7.699c2.239-1.96,5.086-2.94,8.54-2.94c3.546,0,6.416,0.98,8.609,2.94c2.192,1.96,3.29,4.527,3.29,7.699
		c0,3.175-1.098,5.765-3.29,7.771C642.614,134.465,639.744,135.467,636.198,135.467z M625.978,145.687h20.58v69.44h-20.58V145.687z"
		/>
	<path fill="#FFFFFF" d="M657.615,116.987h20.58v77.42c0,2.147,0.396,3.64,1.19,4.479c0.792,0.84,1.61,1.26,2.45,1.26
		c0.466,0,0.861,0,1.189,0c0.326,0,0.771-0.092,1.33-0.279l2.521,15.26c-1.12,0.466-2.544,0.862-4.271,1.19
		c-1.728,0.325-3.758,0.489-6.09,0.489c-3.548,0-6.534-0.56-8.96-1.68c-2.428-1.12-4.364-2.682-5.81-4.69
		c-1.448-2.006-2.499-4.432-3.15-7.279c-0.654-2.847-0.98-6.042-0.98-9.59V116.987z"/>
	<path fill="#FFFFFF" d="M690.655,116.987h20.58v77.42c0,2.147,0.396,3.64,1.19,4.479c0.792,0.84,1.61,1.26,2.45,1.26
		c0.466,0,0.861,0,1.189,0c0.326,0,0.771-0.092,1.33-0.279l2.521,15.26c-1.12,0.466-2.544,0.862-4.271,1.19
		c-1.728,0.325-3.758,0.489-6.09,0.489c-3.548,0-6.534-0.56-8.96-1.68c-2.428-1.12-4.364-2.682-5.81-4.69
		c-1.448-2.006-2.499-4.432-3.15-7.279c-0.654-2.847-0.98-6.042-0.98-9.59V116.987z"/>
	<path fill="#FFFFFF" d="M719.635,180.407c0-5.601,0.932-10.662,2.8-15.19c1.866-4.525,4.316-8.352,7.351-11.479
		c3.031-3.126,6.51-5.53,10.43-7.21c3.92-1.681,7.979-2.521,12.18-2.521c4.946,0,9.262,0.84,12.95,2.521
		c3.686,1.68,6.766,4.014,9.24,7c2.472,2.987,4.315,6.51,5.529,10.569c1.212,4.061,1.82,8.471,1.82,13.23
		c0,1.868-0.094,3.569-0.28,5.109c-0.188,1.54-0.374,2.73-0.56,3.57h-41.58c0.932,5.32,3.01,9.17,6.23,11.55
		c3.22,2.38,7.161,3.57,11.83,3.57c4.945,0,9.939-1.54,14.979-4.62l6.86,12.46c-3.549,2.429-7.49,4.34-11.83,5.74
		s-8.61,2.1-12.811,2.1c-4.948,0-9.567-0.817-13.859-2.449c-4.294-1.633-8.028-4.013-11.2-7.141c-3.174-3.126-5.648-6.93-7.42-11.41
		C720.521,191.327,719.635,186.195,719.635,180.407z M764.435,173.267c0-4.012-0.888-7.279-2.66-9.8
		c-1.773-2.52-4.76-3.78-8.96-3.78c-3.268,0-6.138,1.099-8.609,3.29c-2.475,2.194-4.084,5.624-4.83,10.29H764.435z"/>
</g>
<g enable-background="new    ">
	<path fill="#3A7DC0" d="M789.986,118.286h20.58v77.42c0,2.147,0.396,3.64,1.19,4.479c0.792,0.84,1.61,1.26,2.45,1.26
		c0.466,0,0.861,0,1.189,0c0.326,0,0.77-0.092,1.33-0.279l2.52,15.26c-1.119,0.466-2.543,0.862-4.27,1.19
		c-1.729,0.325-3.758,0.489-6.09,0.489c-3.549,0-6.534-0.56-8.96-1.68c-2.429-1.12-4.364-2.682-5.81-4.69
		c-1.449-2.006-2.498-4.432-3.15-7.279c-0.654-2.847-0.98-6.042-0.98-9.59V118.286z"/>
	<path fill="#3A7DC0" d="M833.246,136.766c-3.454,0-6.3-1.002-8.54-3.01c-2.239-2.006-3.36-4.596-3.36-7.771
		c0-3.172,1.121-5.739,3.36-7.699c2.24-1.96,5.086-2.94,8.54-2.94c3.546,0,6.416,0.98,8.61,2.94c2.192,1.96,3.29,4.527,3.29,7.699
		c0,3.175-1.098,5.765-3.29,7.771C839.662,135.764,836.792,136.766,833.246,136.766z M823.026,146.985h20.58v69.44h-20.58V146.985z"
		/>
	<path fill="#3A7DC0" d="M847.244,146.985h20.72l8.96,32.761c0.932,3.454,1.842,6.978,2.73,10.569
		c0.886,3.595,1.795,7.21,2.729,10.851h0.56c0.841-3.641,1.703-7.256,2.591-10.851c0.886-3.592,1.796-7.115,2.729-10.569l9.1-32.761
		h19.74l-22.68,69.44h-23.8L847.244,146.985z"/>
	<path fill="#3A7DC0" d="M915.704,181.706c0-5.601,0.932-10.662,2.8-15.19c1.866-4.525,4.316-8.352,7.35-11.479
		c3.032-3.126,6.511-5.53,10.431-7.21c3.92-1.681,7.979-2.521,12.18-2.521c4.946,0,9.263,0.84,12.95,2.521
		c3.686,1.68,6.766,4.014,9.24,7c2.472,2.987,4.316,6.51,5.529,10.569c1.213,4.061,1.82,8.471,1.82,13.23
		c0,1.868-0.094,3.569-0.279,5.109c-0.188,1.54-0.375,2.73-0.561,3.57h-41.58c0.932,5.32,3.01,9.17,6.23,11.55
		c3.22,2.38,7.162,3.57,11.83,3.57c4.945,0,9.939-1.54,14.979-4.62l6.86,12.46c-3.549,2.429-7.49,4.34-11.83,5.74
		s-8.61,2.1-12.811,2.1c-4.947,0-9.568-0.817-13.859-2.449c-4.295-1.633-8.028-4.013-11.2-7.141c-3.175-3.126-5.648-6.93-7.42-11.41
		C916.59,192.626,915.704,187.494,915.704,181.706z M960.504,174.565c0-4.012-0.889-7.279-2.66-9.8
		c-1.773-2.52-4.76-3.78-8.959-3.78c-3.27,0-6.139,1.099-8.611,3.29c-2.474,2.194-4.084,5.624-4.83,10.29H960.504z"/>
	<path fill="#3A7DC0" d="M987.522,205.226c0-3.731,1.19-6.836,3.57-9.31c2.38-2.472,5.342-3.71,8.89-3.71
		c3.546,0,6.51,1.238,8.891,3.71c2.379,2.474,3.569,5.578,3.569,9.31c0,3.641-1.19,6.698-3.569,9.17
		c-2.381,2.472-5.345,3.71-8.891,3.71c-3.548,0-6.51-1.238-8.89-3.71S987.522,208.866,987.522,205.226z M990.322,141.246
		l-0.699-18.62h20.72l-0.7,18.62l-2.939,42.84h-13.44L990.322,141.246z"/>
</g>
<g enable-background="new    ">
	<path fill="#BCBEC0" d="M548.275,227.575h5.145v6.021l-0.141,2.659c0.678-0.606,1.406-1.078,2.188-1.417
		c0.782-0.338,1.581-0.508,2.398-0.508c1.05,0,1.994,0.21,2.835,0.63c0.84,0.42,1.558,1.01,2.152,1.768
		c0.595,0.759,1.05,1.681,1.364,2.766c0.316,1.085,0.473,2.292,0.473,3.622c0,1.493-0.204,2.823-0.611,3.99
		c-0.409,1.167-0.957,2.152-1.646,2.957c-0.688,0.806-1.47,1.418-2.345,1.838s-1.779,0.63-2.713,0.63
		c-0.77,0-1.546-0.187-2.328-0.56c-0.781-0.373-1.51-0.934-2.188-1.681h-0.139l-0.421,1.82h-4.024V227.575z M553.42,247.21
		c0.467,0.42,0.934,0.713,1.4,0.875c0.467,0.164,0.922,0.245,1.365,0.245c0.886,0,1.645-0.402,2.274-1.207
		c0.63-0.806,0.944-2.105,0.944-3.902c0-3.127-1.003-4.69-3.01-4.69c-1.026,0-2.018,0.525-2.975,1.575V247.21z"/>
	<path fill="#BCBEC0" d="M568.33,234.75h4.199l0.351,3.045h0.14c0.631-1.189,1.389-2.064,2.275-2.625
		c0.887-0.56,1.773-0.84,2.66-0.84c0.49,0,0.893,0.03,1.207,0.088c0.314,0.059,0.601,0.146,0.857,0.263l-0.84,4.444
		c-0.327-0.093-0.63-0.163-0.91-0.21c-0.279-0.046-0.607-0.069-0.98-0.069c-0.652,0-1.336,0.233-2.047,0.699
		c-0.712,0.468-1.301,1.296-1.768,2.485v10.08h-5.145V234.75z"/>
	<path fill="#BCBEC0" d="M584.814,232.195c-0.863,0-1.574-0.25-2.135-0.753c-0.561-0.501-0.84-1.148-0.84-1.942
		c0-0.793,0.279-1.435,0.84-1.925s1.271-0.734,2.135-0.734c0.887,0,1.604,0.244,2.152,0.734c0.549,0.49,0.823,1.132,0.823,1.925
		c0,0.794-0.274,1.441-0.823,1.942C586.419,231.945,585.701,232.195,584.814,232.195z M582.26,234.75h5.145v17.36h-5.145V234.75z"/>
	<path fill="#BCBEC0" d="M591.919,234.75h4.2l0.35,2.205h0.141c0.746-0.7,1.562-1.312,2.449-1.837
		c0.887-0.525,1.926-0.788,3.115-0.788c1.891,0,3.261,0.619,4.113,1.855c0.852,1.237,1.277,2.952,1.277,5.145v10.78h-5.146v-10.115
		c0-1.26-0.169-2.123-0.507-2.59c-0.339-0.467-0.881-0.7-1.628-0.7c-0.653,0-1.214,0.146-1.681,0.438
		c-0.467,0.292-0.979,0.706-1.539,1.243v11.725h-5.146V234.75z"/>
	<path fill="#BCBEC0" d="M610.854,255.085c0-1.399,0.828-2.566,2.485-3.5v-0.14c-0.467-0.303-0.853-0.688-1.155-1.155
		c-0.303-0.466-0.455-1.062-0.455-1.785c0-0.63,0.188-1.23,0.561-1.802s0.84-1.056,1.4-1.453v-0.14
		c-0.607-0.42-1.15-1.021-1.628-1.803c-0.479-0.781-0.718-1.686-0.718-2.712c0-1.051,0.198-1.966,0.596-2.748
		c0.396-0.781,0.928-1.435,1.592-1.96c0.666-0.524,1.43-0.915,2.293-1.172s1.762-0.386,2.695-0.386c1.025,0,1.924,0.141,2.694,0.42
		h6.335v3.745h-2.765c0.163,0.257,0.298,0.584,0.402,0.98s0.157,0.828,0.157,1.295c0,1.003-0.175,1.872-0.525,2.607
		c-0.35,0.735-0.834,1.342-1.451,1.82c-0.619,0.479-1.343,0.834-2.17,1.067c-0.829,0.233-1.722,0.35-2.678,0.35
		c-0.678,0-1.377-0.116-2.101-0.35c-0.233,0.187-0.397,0.373-0.489,0.56c-0.094,0.188-0.141,0.433-0.141,0.735
		c0,0.443,0.192,0.77,0.578,0.979c0.385,0.21,1.066,0.315,2.047,0.315h2.8c2.146,0,3.786,0.345,4.917,1.032
		c1.133,0.688,1.698,1.814,1.698,3.378c0,0.91-0.228,1.744-0.683,2.502s-1.103,1.412-1.942,1.96s-1.854,0.98-3.045,1.295
		c-1.19,0.315-2.532,0.473-4.024,0.473c-1.027,0-1.979-0.087-2.854-0.263c-0.875-0.175-1.645-0.438-2.31-0.787
		s-1.185-0.805-1.558-1.365C611.041,256.521,610.854,255.855,610.854,255.085z M615.089,254.28c0,0.653,0.351,1.149,1.05,1.487
		c0.7,0.338,1.633,0.508,2.801,0.508c1.166,0,2.123-0.204,2.869-0.612c0.747-0.409,1.121-0.916,1.121-1.522
		c0-0.537-0.229-0.898-0.684-1.085c-0.455-0.188-1.114-0.28-1.977-0.28h-1.785c-0.607,0-1.098-0.018-1.471-0.053
		s-0.699-0.087-0.979-0.157C615.404,253.125,615.089,253.697,615.089,254.28z M618.52,243.5c0.676,0,1.242-0.238,1.697-0.717
		s0.682-1.208,0.682-2.188c0-0.91-0.227-1.604-0.682-2.083c-0.455-0.478-1.021-0.718-1.697-0.718c-0.678,0-1.243,0.234-1.697,0.7
		c-0.455,0.467-0.684,1.167-0.684,2.101c0,0.979,0.229,1.709,0.684,2.188C617.276,243.262,617.842,243.5,618.52,243.5z"/>
	<path fill="#BCBEC0" d="M633.184,232.195c-0.863,0-1.574-0.25-2.135-0.753c-0.561-0.501-0.84-1.148-0.84-1.942
		c0-0.793,0.279-1.435,0.84-1.925s1.271-0.734,2.135-0.734c0.887,0,1.604,0.244,2.152,0.734c0.549,0.49,0.823,1.132,0.823,1.925
		c0,0.794-0.274,1.441-0.823,1.942C634.788,231.945,634.07,232.195,633.184,232.195z M630.629,234.75h5.145v17.36h-5.145V234.75z"/>
	<path fill="#BCBEC0" d="M640.288,234.75h4.2l0.35,2.205h0.141c0.746-0.7,1.562-1.312,2.449-1.837
		c0.887-0.525,1.926-0.788,3.115-0.788c1.891,0,3.261,0.619,4.113,1.855c0.852,1.237,1.277,2.952,1.277,5.145v10.78h-5.146v-10.115
		c0-1.26-0.169-2.123-0.507-2.59c-0.339-0.467-0.881-0.7-1.628-0.7c-0.653,0-1.214,0.146-1.681,0.438
		c-0.467,0.292-0.979,0.706-1.539,1.243v11.725h-5.146V234.75z"/>
	<path fill="#BCBEC0" d="M659.223,255.085c0-1.399,0.828-2.566,2.485-3.5v-0.14c-0.467-0.303-0.853-0.688-1.155-1.155
		c-0.303-0.466-0.455-1.062-0.455-1.785c0-0.63,0.188-1.23,0.561-1.802s0.84-1.056,1.4-1.453v-0.14
		c-0.607-0.42-1.15-1.021-1.628-1.803c-0.479-0.781-0.718-1.686-0.718-2.712c0-1.051,0.198-1.966,0.596-2.748
		c0.396-0.781,0.928-1.435,1.592-1.96c0.666-0.524,1.43-0.915,2.293-1.172s1.762-0.386,2.695-0.386c1.025,0,1.924,0.141,2.694,0.42
		h6.335v3.745h-2.765c0.163,0.257,0.298,0.584,0.402,0.98s0.157,0.828,0.157,1.295c0,1.003-0.175,1.872-0.525,2.607
		c-0.35,0.735-0.834,1.342-1.451,1.82c-0.619,0.479-1.343,0.834-2.17,1.067c-0.829,0.233-1.722,0.35-2.678,0.35
		c-0.678,0-1.377-0.116-2.101-0.35c-0.233,0.187-0.397,0.373-0.489,0.56c-0.094,0.188-0.141,0.433-0.141,0.735
		c0,0.443,0.192,0.77,0.578,0.979c0.385,0.21,1.066,0.315,2.047,0.315h2.8c2.146,0,3.786,0.345,4.917,1.032
		c1.133,0.688,1.698,1.814,1.698,3.378c0,0.91-0.228,1.744-0.683,2.502s-1.103,1.412-1.942,1.96s-1.854,0.98-3.045,1.295
		c-1.19,0.315-2.532,0.473-4.024,0.473c-1.027,0-1.979-0.087-2.854-0.263c-0.875-0.175-1.645-0.438-2.31-0.787
		s-1.185-0.805-1.558-1.365C659.41,256.521,659.223,255.855,659.223,255.085z M663.458,254.28c0,0.653,0.351,1.149,1.05,1.487
		c0.7,0.338,1.633,0.508,2.801,0.508c1.166,0,2.123-0.204,2.869-0.612c0.747-0.409,1.121-0.916,1.121-1.522
		c0-0.537-0.229-0.898-0.684-1.085c-0.455-0.188-1.114-0.28-1.977-0.28h-1.785c-0.607,0-1.098-0.018-1.471-0.053
		s-0.699-0.087-0.979-0.157C663.773,253.125,663.458,253.697,663.458,254.28z M666.889,243.5c0.676,0,1.242-0.238,1.697-0.717
		s0.682-1.208,0.682-2.188c0-0.91-0.227-1.604-0.682-2.083c-0.455-0.478-1.021-0.718-1.697-0.718c-0.678,0-1.243,0.234-1.697,0.7
		c-0.455,0.467-0.684,1.167-0.684,2.101c0,0.979,0.229,1.709,0.684,2.188C665.646,243.262,666.211,243.5,666.889,243.5z"/>
	<path fill="#BCBEC0" d="M691.422,253.476v5.075h-5.145V234.75h4.2l0.351,1.716h0.139c0.678-0.607,1.441-1.114,2.293-1.523
		c0.852-0.407,1.732-0.612,2.643-0.612c1.051,0,1.995,0.21,2.835,0.63c0.841,0.42,1.552,1.016,2.136,1.785
		c0.582,0.771,1.031,1.697,1.347,2.783c0.315,1.085,0.473,2.292,0.473,3.622c0,1.493-0.204,2.817-0.612,3.973
		s-0.957,2.135-1.645,2.939c-0.689,0.806-1.471,1.418-2.346,1.838s-1.779,0.63-2.713,0.63c-0.746,0-1.47-0.157-2.17-0.473
		c-0.699-0.314-1.354-0.764-1.959-1.348L691.422,253.476z M691.422,247.21c0.467,0.42,0.934,0.713,1.4,0.875
		c0.467,0.164,0.922,0.245,1.365,0.245c0.887,0,1.645-0.402,2.275-1.207c0.629-0.806,0.944-2.105,0.944-3.902
		c0-3.127-1.003-4.69-3.01-4.69c-1.003,0-1.995,0.525-2.976,1.575V247.21z"/>
	<path fill="#BCBEC0" d="M705.317,243.431c0-1.447,0.233-2.735,0.7-3.868c0.467-1.131,1.09-2.082,1.873-2.853
		c0.781-0.77,1.686-1.358,2.712-1.768c1.026-0.407,2.088-0.612,3.185-0.612c1.098,0,2.152,0.205,3.168,0.612
		c1.016,0.409,1.913,0.998,2.695,1.768c0.781,0.771,1.405,1.722,1.872,2.853c0.467,1.133,0.7,2.421,0.7,3.868
		c0,1.446-0.233,2.735-0.7,3.867s-1.091,2.082-1.872,2.853c-0.782,0.77-1.68,1.359-2.695,1.768s-2.07,0.612-3.168,0.612
		c-1.097,0-2.158-0.204-3.185-0.612s-1.931-0.998-2.712-1.768c-0.783-0.771-1.406-1.721-1.873-2.853
		S705.317,244.877,705.317,243.431z M710.603,243.431c0,1.517,0.263,2.718,0.788,3.604c0.524,0.888,1.323,1.33,2.396,1.33
		c1.051,0,1.844-0.442,2.381-1.33c0.536-0.887,0.805-2.088,0.805-3.604s-0.269-2.719-0.805-3.605c-0.537-0.887-1.33-1.33-2.381-1.33
		c-1.073,0-1.872,0.443-2.396,1.33C710.865,240.712,710.603,241.914,710.603,243.431z"/>
	<path fill="#BCBEC0" d="M725.758,234.75h4.199l0.351,2.205h0.14c0.746-0.7,1.562-1.312,2.45-1.837
		c0.886-0.525,1.925-0.788,3.114-0.788c1.891,0,3.262,0.619,4.113,1.855c0.852,1.237,1.277,2.952,1.277,5.145v10.78h-5.145v-10.115
		c0-1.26-0.17-2.123-0.508-2.59s-0.881-0.7-1.627-0.7c-0.654,0-1.215,0.146-1.681,0.438c-0.467,0.292-0.979,0.706-1.54,1.243v11.725
		h-5.145V234.75z"/>
	<path fill="#BCBEC0" d="M746.723,254.771c0.209,0.046,0.407,0.07,0.594,0.07c0.863,0,1.528-0.211,1.996-0.631
		c0.466-0.42,0.816-0.968,1.049-1.645l0.246-0.91l-6.686-16.905h5.18l2.485,7.455c0.257,0.794,0.49,1.599,0.7,2.415
		c0.21,0.817,0.432,1.657,0.665,2.521h0.14c0.187-0.816,0.379-1.64,0.578-2.468c0.197-0.828,0.402-1.65,0.611-2.468l2.101-7.455
		h4.935l-6.02,17.535c-0.42,1.097-0.857,2.06-1.312,2.888s-0.98,1.517-1.574,2.065c-0.596,0.548-1.273,0.962-2.031,1.242
		s-1.65,0.42-2.677,0.42c-0.537,0-0.992-0.029-1.365-0.088c-0.374-0.059-0.735-0.146-1.085-0.262l0.91-3.921
		C746.324,254.677,746.512,254.724,746.723,254.771z"/>
	<path fill="#BCBEC0" d="M776.437,253.476v5.075h-5.146V234.75h4.201l0.35,1.716h0.14c0.677-0.607,1.44-1.114,2.292-1.523
		c0.852-0.407,1.733-0.612,2.643-0.612c1.051,0,1.996,0.21,2.836,0.63s1.551,1.016,2.135,1.785c0.583,0.771,1.032,1.697,1.348,2.783
		c0.314,1.085,0.473,2.292,0.473,3.622c0,1.493-0.205,2.817-0.613,3.973s-0.957,2.135-1.645,2.939
		c-0.688,0.806-1.471,1.418-2.346,1.838s-1.779,0.63-2.712,0.63c-0.747,0-1.47-0.157-2.17-0.473c-0.7-0.314-1.354-0.764-1.96-1.348
		L776.437,253.476z M776.437,247.21c0.467,0.42,0.933,0.713,1.399,0.875c0.467,0.164,0.922,0.245,1.365,0.245
		c0.887,0,1.646-0.402,2.275-1.207c0.63-0.806,0.945-2.105,0.945-3.902c0-3.127-1.004-4.69-3.01-4.69
		c-1.004,0-1.996,0.525-2.976,1.575V247.21z"/>
	<path fill="#BCBEC0" d="M790.331,243.431c0-1.4,0.233-2.666,0.7-3.798s1.079-2.088,1.838-2.87c0.758-0.781,1.627-1.383,2.607-1.803
		c0.979-0.42,1.994-0.63,3.045-0.63c1.236,0,2.315,0.21,3.237,0.63c0.921,0.42,1.691,1.004,2.31,1.75
		c0.618,0.747,1.08,1.628,1.383,2.643c0.303,1.016,0.455,2.118,0.455,3.308c0,0.467-0.023,0.893-0.07,1.277
		c-0.047,0.386-0.094,0.683-0.14,0.893h-10.396c0.233,1.33,0.753,2.293,1.559,2.888c0.805,0.595,1.79,0.893,2.957,0.893
		c1.236,0,2.484-0.385,3.745-1.155l1.715,3.115c-0.888,0.607-1.872,1.085-2.958,1.435c-1.084,0.351-2.152,0.525-3.202,0.525
		c-1.237,0-2.392-0.204-3.465-0.612s-2.007-1.003-2.8-1.785c-0.794-0.781-1.412-1.732-1.855-2.853S790.331,244.877,790.331,243.431z
		 M801.531,241.646c0-1.003-0.223-1.82-0.665-2.45c-0.443-0.63-1.19-0.945-2.239-0.945c-0.818,0-1.535,0.274-2.153,0.823
		c-0.618,0.548-1.021,1.405-1.208,2.572H801.531z"/>
	<path fill="#BCBEC0" d="M808.461,243.431c0-1.447,0.233-2.735,0.7-3.868c0.466-1.131,1.091-2.082,1.872-2.853
		c0.781-0.77,1.686-1.358,2.713-1.768c1.026-0.407,2.088-0.612,3.186-0.612c1.096,0,2.152,0.205,3.167,0.612
		c1.015,0.409,1.913,0.998,2.694,1.768c0.782,0.771,1.406,1.722,1.873,2.853c0.467,1.133,0.7,2.421,0.7,3.868
		c0,1.446-0.233,2.735-0.7,3.867s-1.091,2.082-1.873,2.853c-0.781,0.77-1.68,1.359-2.694,1.768s-2.071,0.612-3.167,0.612
		c-1.098,0-2.159-0.204-3.186-0.612c-1.027-0.408-1.932-0.998-2.713-1.768c-0.781-0.771-1.406-1.721-1.872-2.853
		C808.694,246.166,808.461,244.877,808.461,243.431z M813.746,243.431c0,1.517,0.263,2.718,0.787,3.604
		c0.525,0.888,1.324,1.33,2.398,1.33c1.049,0,1.842-0.442,2.379-1.33c0.537-0.887,0.806-2.088,0.806-3.604s-0.269-2.719-0.806-3.605
		s-1.33-1.33-2.379-1.33c-1.074,0-1.873,0.443-2.398,1.33C814.009,240.712,813.746,241.914,813.746,243.431z"/>
	<path fill="#BCBEC0" d="M834.046,253.476v5.075H828.9V234.75h4.201l0.35,1.716h0.14c0.677-0.607,1.44-1.114,2.292-1.523
		c0.852-0.407,1.733-0.612,2.643-0.612c1.051,0,1.996,0.21,2.836,0.63s1.551,1.016,2.135,1.785c0.583,0.771,1.032,1.697,1.348,2.783
		c0.314,1.085,0.473,2.292,0.473,3.622c0,1.493-0.205,2.817-0.613,3.973s-0.957,2.135-1.645,2.939
		c-0.688,0.806-1.471,1.418-2.346,1.838s-1.779,0.63-2.712,0.63c-0.747,0-1.47-0.157-2.17-0.473c-0.7-0.314-1.354-0.764-1.96-1.348
		L834.046,253.476z M834.046,247.21c0.467,0.42,0.933,0.713,1.399,0.875c0.467,0.164,0.922,0.245,1.365,0.245
		c0.887,0,1.646-0.402,2.275-1.207c0.63-0.806,0.945-2.105,0.945-3.902c0-3.127-1.004-4.69-3.01-4.69
		c-1.004,0-1.996,0.525-2.976,1.575V247.21z"/>
	<path fill="#BCBEC0" d="M848.955,227.575h5.146v19.355c0,0.537,0.099,0.91,0.298,1.12c0.197,0.21,0.402,0.314,0.612,0.314
		c0.116,0,0.216,0,0.298,0c0.081,0,0.192-0.022,0.332-0.07l0.63,3.815c-0.28,0.116-0.636,0.216-1.067,0.298
		c-0.432,0.081-0.939,0.122-1.522,0.122c-0.887,0-1.634-0.14-2.24-0.42s-1.091-0.671-1.452-1.173
		c-0.362-0.501-0.625-1.107-0.787-1.819c-0.164-0.712-0.246-1.511-0.246-2.397V227.575z"/>
	<path fill="#BCBEC0" d="M857.95,243.431c0-1.4,0.233-2.666,0.7-3.798s1.079-2.088,1.838-2.87c0.758-0.781,1.627-1.383,2.607-1.803
		c0.979-0.42,1.995-0.63,3.045-0.63c1.236,0,2.315,0.21,3.237,0.63s1.691,1.004,2.31,1.75c0.618,0.747,1.079,1.628,1.383,2.643
		c0.303,1.016,0.455,2.118,0.455,3.308c0,0.467-0.023,0.893-0.07,1.277c-0.047,0.386-0.093,0.683-0.14,0.893h-10.395
		c0.232,1.33,0.752,2.293,1.557,2.888c0.806,0.595,1.791,0.893,2.958,0.893c1.236,0,2.485-0.385,3.745-1.155l1.715,3.115
		c-0.887,0.607-1.873,1.085-2.958,1.435c-1.085,0.351-2.152,0.525-3.202,0.525c-1.237,0-2.392-0.204-3.465-0.612
		s-2.007-1.003-2.8-1.785c-0.794-0.781-1.412-1.732-1.855-2.853S857.95,244.877,857.95,243.431z M869.15,241.646
		c0-1.003-0.222-1.82-0.665-2.45s-1.189-0.945-2.24-0.945c-0.816,0-1.534,0.274-2.152,0.823c-0.618,0.548-1.021,1.405-1.207,2.572
		H869.15z"/>
	<path fill="#BCBEC0" d="M885.074,238.775h-2.38v-3.815l2.66-0.21l0.595-4.62h4.271v4.62h4.165v4.025h-4.165v6.965
		c0,0.98,0.204,1.687,0.612,2.117c0.408,0.433,0.95,0.647,1.628,0.647c0.279,0,0.565-0.034,0.857-0.104
		c0.291-0.07,0.554-0.151,0.787-0.245l0.805,3.745c-0.467,0.14-1.015,0.28-1.645,0.42s-1.365,0.21-2.205,0.21
		c-1.073,0-1.989-0.163-2.747-0.49c-0.759-0.326-1.377-0.781-1.855-1.364s-0.828-1.289-1.05-2.118
		c-0.222-0.828-0.333-1.744-0.333-2.747V238.775z"/>
	<path fill="#BCBEC0" d="M896.415,243.431c0-1.447,0.233-2.735,0.7-3.868c0.467-1.131,1.091-2.082,1.872-2.853
		c0.782-0.77,1.686-1.358,2.713-1.768c1.026-0.407,2.088-0.612,3.186-0.612c1.096,0,2.152,0.205,3.167,0.612
		c1.015,0.409,1.913,0.998,2.695,1.768c0.781,0.771,1.405,1.722,1.872,2.853c0.467,1.133,0.7,2.421,0.7,3.868
		c0,1.446-0.233,2.735-0.7,3.867s-1.091,2.082-1.872,2.853c-0.782,0.77-1.681,1.359-2.695,1.768s-2.071,0.612-3.167,0.612
		c-1.098,0-2.159-0.204-3.186-0.612c-1.027-0.408-1.931-0.998-2.713-1.768c-0.781-0.771-1.405-1.721-1.872-2.853
		S896.415,244.877,896.415,243.431z M901.7,243.431c0,1.517,0.263,2.718,0.787,3.604c0.525,0.888,1.324,1.33,2.398,1.33
		c1.05,0,1.843-0.442,2.38-1.33c0.536-0.887,0.805-2.088,0.805-3.604s-0.269-2.719-0.805-3.605c-0.537-0.887-1.33-1.33-2.38-1.33
		c-1.074,0-1.873,0.443-2.398,1.33C901.963,240.712,901.7,241.914,901.7,243.431z"/>
	<path fill="#BCBEC0" d="M915.771,255.085c0-1.399,0.827-2.566,2.484-3.5v-0.14c-0.467-0.303-0.852-0.688-1.155-1.155
		c-0.303-0.466-0.454-1.062-0.454-1.785c0-0.63,0.187-1.23,0.56-1.802s0.84-1.056,1.4-1.453v-0.14
		c-0.607-0.42-1.15-1.021-1.628-1.803c-0.479-0.781-0.718-1.686-0.718-2.712c0-1.051,0.198-1.966,0.596-2.748
		c0.396-0.781,0.927-1.435,1.592-1.96c0.665-0.524,1.43-0.915,2.293-1.172s1.762-0.386,2.695-0.386c1.026,0,1.925,0.141,2.694,0.42
		h6.335v3.745H929.7c0.163,0.257,0.298,0.584,0.402,0.98c0.105,0.396,0.157,0.828,0.157,1.295c0,1.003-0.175,1.872-0.524,2.607
		c-0.351,0.735-0.835,1.342-1.453,1.82s-1.342,0.834-2.17,1.067s-1.721,0.35-2.677,0.35c-0.678,0-1.378-0.116-2.101-0.35
		c-0.233,0.187-0.396,0.373-0.49,0.56c-0.093,0.188-0.14,0.433-0.14,0.735c0,0.443,0.192,0.77,0.577,0.979
		c0.386,0.21,1.067,0.315,2.048,0.315h2.8c2.146,0,3.786,0.345,4.918,1.032c1.131,0.688,1.697,1.814,1.697,3.378
		c0,0.91-0.228,1.744-0.683,2.502s-1.103,1.412-1.942,1.96s-1.855,0.98-3.045,1.295c-1.19,0.315-2.532,0.473-4.025,0.473
		c-1.026,0-1.978-0.087-2.853-0.263c-0.875-0.175-1.645-0.438-2.31-0.787s-1.185-0.805-1.558-1.365
		C915.957,256.521,915.771,255.855,915.771,255.085z M920.005,254.28c0,0.653,0.351,1.149,1.05,1.487
		c0.7,0.338,1.634,0.508,2.801,0.508c1.166,0,2.123-0.204,2.869-0.612c0.747-0.409,1.12-0.916,1.12-1.522
		c0-0.537-0.228-0.898-0.683-1.085c-0.454-0.188-1.114-0.28-1.977-0.28H923.4c-0.607,0-1.098-0.018-1.471-0.053
		s-0.699-0.087-0.979-0.157C920.32,253.125,920.005,253.697,920.005,254.28z M923.436,243.5c0.676,0,1.242-0.238,1.697-0.717
		s0.683-1.208,0.683-2.188c0-0.91-0.228-1.604-0.683-2.083c-0.455-0.478-1.021-0.718-1.697-0.718c-0.678,0-1.243,0.234-1.698,0.7
		c-0.455,0.467-0.683,1.167-0.683,2.101c0,0.979,0.228,1.709,0.683,2.188S922.758,243.5,923.436,243.5z"/>
	<path fill="#BCBEC0" d="M933.899,243.431c0-1.4,0.233-2.666,0.7-3.798s1.079-2.088,1.838-2.87c0.758-0.781,1.627-1.383,2.607-1.803
		c0.979-0.42,1.995-0.63,3.045-0.63c1.236,0,2.315,0.21,3.237,0.63s1.691,1.004,2.31,1.75c0.618,0.747,1.079,1.628,1.383,2.643
		c0.303,1.016,0.455,2.118,0.455,3.308c0,0.467-0.023,0.893-0.07,1.277c-0.047,0.386-0.093,0.683-0.14,0.893H938.87
		c0.232,1.33,0.752,2.293,1.557,2.888c0.806,0.595,1.791,0.893,2.958,0.893c1.236,0,2.485-0.385,3.745-1.155l1.715,3.115
		c-0.887,0.607-1.873,1.085-2.958,1.435c-1.085,0.351-2.152,0.525-3.202,0.525c-1.237,0-2.392-0.204-3.465-0.612
		s-2.007-1.003-2.8-1.785c-0.794-0.781-1.412-1.732-1.855-2.853S933.899,244.877,933.899,243.431z M945.1,241.646
		c0-1.003-0.222-1.82-0.665-2.45s-1.189-0.945-2.24-0.945c-0.816,0-1.534,0.274-2.152,0.823c-0.618,0.548-1.021,1.405-1.207,2.572
		H945.1z"/>
	<path fill="#BCBEC0" d="M953.114,238.775h-2.38v-3.815l2.66-0.21l0.595-4.62h4.271v4.62h4.165v4.025h-4.165v6.965
		c0,0.98,0.204,1.687,0.612,2.117c0.408,0.433,0.95,0.647,1.628,0.647c0.279,0,0.565-0.034,0.857-0.104
		c0.291-0.07,0.554-0.151,0.787-0.245l0.805,3.745c-0.467,0.14-1.015,0.28-1.645,0.42s-1.365,0.21-2.205,0.21
		c-1.073,0-1.989-0.163-2.747-0.49c-0.759-0.326-1.377-0.781-1.855-1.364s-0.828-1.289-1.05-2.118
		c-0.222-0.828-0.333-1.744-0.333-2.747V238.775z"/>
	<path fill="#BCBEC0" d="M965.82,227.575h5.145v6.021l-0.245,3.114c0.653-0.583,1.412-1.125,2.275-1.627
		c0.862-0.502,1.89-0.753,3.08-0.753c1.89,0,3.26,0.619,4.112,1.855c0.852,1.237,1.277,2.952,1.277,5.145v10.78h-5.145v-10.115
		c0-1.26-0.17-2.123-0.508-2.59c-0.339-0.467-0.881-0.7-1.628-0.7c-0.653,0-1.213,0.146-1.68,0.438
		c-0.467,0.292-0.979,0.706-1.54,1.243v11.725h-5.145V227.575z"/>
	<path fill="#BCBEC0" d="M984.79,243.431c0-1.4,0.233-2.666,0.7-3.798s1.079-2.088,1.838-2.87c0.758-0.781,1.627-1.383,2.607-1.803
		c0.979-0.42,1.995-0.63,3.045-0.63c1.236,0,2.315,0.21,3.237,0.63s1.691,1.004,2.31,1.75c0.618,0.747,1.079,1.628,1.383,2.643
		c0.303,1.016,0.455,2.118,0.455,3.308c0,0.467-0.023,0.893-0.07,1.277c-0.047,0.386-0.093,0.683-0.14,0.893h-10.395
		c0.232,1.33,0.752,2.293,1.557,2.888c0.806,0.595,1.791,0.893,2.958,0.893c1.236,0,2.485-0.385,3.745-1.155l1.715,3.115
		c-0.887,0.607-1.873,1.085-2.958,1.435c-1.085,0.351-2.152,0.525-3.202,0.525c-1.237,0-2.392-0.204-3.465-0.612
		s-2.007-1.003-2.8-1.785c-0.794-0.781-1.412-1.732-1.855-2.853S984.79,244.877,984.79,243.431z M995.99,241.646
		c0-1.003-0.222-1.82-0.665-2.45s-1.189-0.945-2.24-0.945c-0.816,0-1.534,0.274-2.152,0.823c-0.618,0.548-1.021,1.405-1.207,2.572
		H995.99z"/>
	<path fill="#BCBEC0" d="M1003.935,234.75h4.199l0.351,3.045h0.14c0.63-1.189,1.388-2.064,2.275-2.625
		c0.887-0.56,1.772-0.84,2.66-0.84c0.489,0,0.893,0.03,1.207,0.088c0.315,0.059,0.601,0.146,0.857,0.263l-0.84,4.444
		c-0.327-0.093-0.63-0.163-0.91-0.21c-0.28-0.046-0.606-0.069-0.979-0.069c-0.654,0-1.336,0.233-2.048,0.699
		c-0.712,0.468-1.301,1.296-1.768,2.485v10.08h-5.145V234.75z"/>
</g>
</svg>
