<?xml version="1.0" encoding="utf-8"?>
<!-- Generator: Adobe Illustrator 16.0.0, SVG Export Plug-In . SVG Version: 6.00 Build 0)  -->
<!DOCTYPE svg PUBLIC "-//W3C//DTD SVG 1.1//EN" "http://www.w3.org/Graphics/SVG/1.1/DTD/svg11.dtd">
<svg version="1.1" id="Layer_1" xmlns="http://www.w3.org/2000/svg" xmlns:xlink="http://www.w3.org/1999/xlink" x="0px" y="0px"
	 width="1080px" height="360px" viewBox="0 0 1080 360" enable-background="new 0 0 1080 360" xml:space="preserve">
<g>
	<g>
		<path fill-rule="evenodd" clip-rule="evenodd" fill="#FFFFFF" d="M185.625,102.727c1.102,0.394,2.264,0.409,3.398,0.159
			c0.671-0.149,1.317-0.356,1.944-0.6l-7.853-4.531c-0.707,0.01-1.398,0.131-2.035,0.615c-0.285,0.217-0.364,0.364-0.119,0.701
			C182.167,100.741,183.672,102.03,185.625,102.727z"/>
		<path fill-rule="evenodd" clip-rule="evenodd" fill="#FFFFFF" d="M86.144,244.014l0.333,0.191c0.075-0.185,0.169-0.355,0.24-0.544
			C86.525,243.782,86.333,243.895,86.144,244.014z"/>
		<path fill-rule="evenodd" clip-rule="evenodd" fill="#FFFFFF" d="M149.517,63.394L48.993,121.434v116.081l100.524,58.04
			l100.525-58.04V121.434L149.517,63.394z M147.937,179.495c-0.735,0.104-1.441,0.021-2.15,0.095
			c-1.424,0.15-2.844,0.326-4.264,0.527c-2.494,0.355-4.563,1.549-6.402,3.191c-0.734,0.657-1.424,1.367-1.983,2.264
			c-0.212-0.421-0.372-0.796-0.58-1.141c-1.24-2.066-2.585-4.06-4.11-5.932c-1.409-1.729-2.797-3.467-4.453-4.979
			c-1.368-1.249-2.842-2.336-4.443-3.246c-2.91-1.653-6.062-2.528-9.39-2.734c-1.77-0.109-3.549-0.02-5.302,0.26
			c-1.75,0.279-3.473,0.694-5.156,1.262c-2.78,0.939-5.406,2.195-7.948,3.661c-2.248,1.296-4.234,2.874-5.925,4.84
			c-1.333,1.55-2.425,3.256-3.366,5.062c-1.089,2.084-1.94,4.269-2.631,6.516c-0.525,1.709-0.961,3.439-1.32,5.189
			c-0.231,1.124-0.437,2.25-0.618,3.384c-0.175,1.093-0.339,2.188-0.477,3.283c-0.12,0.964-0.2,1.935-0.286,2.903
			c-0.135,1.505-0.238,3.011-0.327,4.518c-0.054,0.936-0.116,1.872-0.086,2.812c0.002,0.071,0.003,0.144-0.084,0.174
			c0,0.515,0,1.029,0,1.542c0.161,0.101,0.089,0.264,0.08,0.389c-0.04,0.501,0.035,0.999,0.113,1.48
			c0.244,1.53,0.615,3.028,1.164,4.487c0.874,2.328,2.114,4.439,3.588,6.425c0.562,0.758,1.178,1.474,1.805,2.181
			c0.776,0.876,1.609,1.693,2.46,2.491c0.775,0.724,1.599,1.4,2.459,2.063c-1.063-0.077-2.03,0.237-2.979,0.625
			c-0.658,0.268-1.314,0.521-1.904,0.948c-0.981,0.714-1.311,1.715-1.38,2.841c-0.073,1.179,0.065,2.359-0.084,3.54
			c-0.046,0.366-0.124,0.714-0.208,1.061l-19.853-11.453V128.923l87.622-50.551l24.229,13.978c-0.9-0.161-1.805-0.29-2.723-0.315
			c-0.844-0.023-1.689,0.007-2.533-0.008c-0.739-0.012-1.473,0.079-2.193,0.193c-1.806,0.285-3.579,0.714-5.305,1.347
			c-2.189,0.805-4.261,1.839-6.23,3.081c-2.252,1.418-4.314,3.07-6.145,5.014c-0.842,0.896-1.637,1.828-2.396,2.794
			c-1.018,1.302-1.965,2.654-2.81,4.076c-0.129,0.218-0.173,0.155-0.324,0.057c-0.539-0.351-1.082-0.696-1.587-1.097
			c-1.55-1.231-3.307-2.021-5.237-2.427c-0.283-0.06-0.542,0.012-0.783,0.22c-0.625,0.538-0.975,1.239-1.261,1.987
			c-0.788,2.053-0.906,4.217-1.016,6.375c-0.07,1.401,0.048,2.798,0.241,4.19c0.183,1.318,0.47,2.608,0.844,3.885
			c0.652,2.227,1.581,4.334,2.759,6.328c0.249,0.421,0.248,0.743,0.112,1.203c-0.404,1.36-0.347,2.789-0.442,4.19
			c-0.105,1.564,0.078,3.129,0.1,4.695c0.007,0.605,0.024,1.219,0.068,1.826c0.104,1.449,0.235,2.897,0.333,4.347
			c0.082,1.216,0.119,2.436,0.154,3.651c0.04,1.377,0.05,2.758-0.042,4.141c-0.08,1.198-0.137,2.395-0.273,3.589
			c-0.118,1.032-0.284,2.056-0.481,3.072c-0.247,1.266-0.34,2.547-0.335,3.819c0.001,0.722,0.023,1.462,0.099,2.196
			c0.106,1.05,0.215,2.096,0.46,3.12c0.461,1.919,1.268,3.643,2.847,4.927c1.265,1.029,2.735,1.521,4.327,1.624
			c1.056,0.067,2.12,0.044,3.18-0.141c1.23-0.218,2.433-0.502,3.594-0.961c0.285-0.113,0.372-0.092,0.364,0.234
			c-0.017,0.649-0.005,1.294,0.127,1.942c0.292,1.413,0.969,2.579,2.195,3.563 M237.138,230.023l-87.621,50.552l-54.681-31.547
			c1.004-0.855,1.715-2.007,2.184-3.411c0.159-0.472,0.293-0.954,0.447-1.46c0.107,0.123,0.165,0.206,0.164,0.327
			c0,0.112,0.007,0.228,0.039,0.334c0.307,1.051,1.176,1.517,2.063,1.954c0.159,0.078,0.259-0.021,0.295-0.196
			c0.418-2.043,1.292-3.888,2.443-5.611c0.859-1.288,1.18-2.712,0.972-4.237c-0.092-0.674-0.273-1.341-0.592-1.954
			c-0.07-0.137-0.195-0.262,0.099-0.323c2.098-0.438,3.833-1.492,5.272-3.079c0.889-0.981,1.575-2.086,2.056-3.299
			c1.079-2.718,1.42-5.553,1.247-8.471c-0.083-1.415-0.392-2.774-0.849-4.096c-0.638-1.846-1.386-3.651-2.038-5.49
			c-0.677-1.911-1.256-3.85-1.422-5.893c-0.124-1.531-0.107-3.044,0.171-4.56c0.243-1.325,0.659-2.593,1.164-3.837
			c0.485-1.191,1.139-2.285,2.026-3.218c0.973-1.022,2.145-1.761,3.493-2.184c1.569-0.494,3.167-0.685,4.823-0.538
			c1.124,0.099,2.244,0.212,3.332,0.47c2.506,0.596,4.92,1.47,7.223,2.636c0.25,0.127,0.266,0.31,0.219,0.517
			c-0.18,0.788-0.212,1.595-0.23,2.392c-0.026,1.106-0.043,2.216,0.053,3.327c0.092,1.052,0.194,2.103,0.387,3.137
			c0.318,1.701,0.828,3.354,1.42,4.983c0.75,2.064,1.61,4.079,2.554,6.058c0.68,1.425,1.388,2.836,2.178,4.226
			c-0.073,0.02-0.11,0.037-0.148,0.038c-1.005,0.016-1.98,0.176-2.895,0.617c-0.164,0.079-0.28,0.158-0.32,0.391
			c-0.223,1.279-0.495,2.55-0.729,3.827c-0.197,1.073-0.371,2.152-0.542,3.229c-0.134,0.844-0.25,1.689-0.373,2.537
			c-0.134,0.929-0.298,1.855-0.391,2.789c-0.088,0.896-0.19,1.794-0.288,2.688c-0.144,1.306-0.262,2.614-0.299,3.919
			c-0.06,2.084-0.092,4.172,0.222,6.25c0.163,1.08,0.315,2.161,0.569,3.223c0.553,2.303,1.346,4.519,2.437,6.63
			c0.354,0.688,0.862,1.179,1.524,1.51c1.294,0.647,2.708,0.813,4.124,0.86c1.729,0.055,3.455-0.067,5.177-0.235
			c0.84-0.082,1.674-0.18,2.499-0.353c0.723-0.151,1.431-0.284,2.18-0.09c1.594,0.413,3.237,0.619,4.871,0.659
			c1.964,0.046,3.947,0.238,5.901-0.227c1.218-0.289,2.366-0.729,3.42-1.429c0.373-0.249,0.257-0.447,0.098-0.7
			c-0.918-1.457-1.721-2.976-2.452-4.538c-1.115-2.384-2.02-4.839-2.696-7.383c-0.461-1.734-0.771-3.495-0.983-5.274
			c-0.14-1.157-0.103-2.322-0.151-3.481c-0.081-1.916-0.012-3.834,0.135-5.75c0.091-1.209,0.221-2.408,0.444-3.596
			c0.323-1.724,0.787-3.409,1.601-4.964c1.68-3.204,3.033-6.511,3.559-10.118c0.036-0.24,0.02-0.552,0.388-0.675
			c0.501-0.169,0.982-0.399,1.462-0.63c1.601-0.775,3.164-1.622,4.722-2.484c1.234-0.683,2.358-1.517,3.399-2.465
			c1.006-0.916,1.865-1.963,2.535-3.149c0.19-0.333,0.294-0.289,0.597-0.146c0.826,0.386,1.71,0.573,2.625,0.673
			c1.026,0.111,2.062,0.141,3.067,0.035c1.643-0.173,3.174-0.754,4.489-1.803c0.134-0.106,0.242-0.124,0.389,0.021
			c0.354,0.351,0.674,0.727,0.986,1.112c0.688,0.85,1.084,1.859,1.533,2.836c0.467,1.012,0.886,2.048,1.134,3.145
			c0.146,0.649,0.187,1.331,0.551,1.92c0.913,1.473,2.157,2.618,3.563,3.595c1.551,1.077,3.252,1.844,5.066,2.372
			c1.734,0.504,3.517,0.711,5.313,0.795c0.564,0.026,1.132-0.027,1.697-0.061c1.075-0.064,2.119-0.232,3.118-0.623
			c1.571-0.617,2.3-1.675,2.441-3.174c0.093-0.979-0.122-1.93-0.406-2.865c-0.623-2.039-1.564-3.947-2.47-5.864
			c-0.849-1.792-2.033-3.346-3.528-4.678c-1.22-1.09-2.501-2.091-3.828-3.04c-1.639-1.172-3.299-2.313-5.072-3.271
			c-2.329-1.263-4.757-2.289-7.309-3.03c-2.228-0.649-4.485-1.096-6.815-1.259c0.153-0.607,0.298-1.212,0.327-1.847
			c0.012-0.252-0.017-0.576,0.275-0.805c1.689-1.321,3.438-2.56,5.186-3.798c2.205-1.563,4.409-3.124,6.557-4.766
			c0.244-0.187,0.393-0.217,0.639,0.038c1.036,1.078,2.128,2.102,3.119,3.224c0.67,0.759,1.355,1.507,1.94,2.338
			c0.996,1.416,2.25,2.53,3.827,3.263c2.023,0.938,4.181,1.229,6.375,1.34c0.892,0.044,1.779-0.032,2.665-0.156
			c1.298-0.183,2.54-0.537,3.729-1.071c1.808-0.81,3.361-1.972,4.669-3.458c0.522-0.593,0.895-1.239,0.849-2.082
			c-0.049-0.866-0.447-1.59-0.892-2.281c-1.211-1.882-2.718-3.516-4.342-5.05c-1.25-1.179-2.687-2.076-4.197-2.852
			c-1.929-0.992-3.964-1.736-6.055-2.302c-1.347-0.364-2.705-0.688-4.078-0.948c-1.223-0.231-2.461-0.394-3.7-0.55
			c-1.132-0.142-2.272-0.289-3.404-0.301c-2.017-0.022-4.038-0.164-6.052,0.142c-0.93,0.142-1.849,0.314-2.69,0.747
			c-1.087,0.56-1.995,1.334-2.801,2.265c-1.027,1.188-1.913,2.453-2.486,3.918c-0.063,0.161-0.096,0.155-0.209,0.098
			c-0.561-0.285-1.164-0.363-1.778-0.444c-0.249-0.032-0.597,0.075-0.769-0.283c-0.303-0.632-0.627-1.252-0.954-1.872
			c-0.672-1.276-1.377-2.533-2.106-3.777c-0.756-1.288-1.638-2.506-2.18-3.918c-0.688-1.798-1.004-3.65-0.936-5.572
			c0.006-0.189,0.068-0.258,0.249-0.239c0.28,0.03,0.563,0.098,0.84,0.079c1.375-0.094,2.745,0.201,4.124,0.018
			c0.729-0.097,1.473-0.025,2.213-0.074c1.126-0.076,2.25-0.148,3.355-0.371c1.888-0.382,3.56-1.181,4.867-2.649
			c0.144-0.162,0.162-0.284-0.003-0.43c-0.215-0.19-0.353-0.437-0.475-0.691c-0.589-1.237-0.794-2.574-0.839-3.915
			c-0.066-1.92-0.074-3.848,0.087-5.765c0.046-0.559-0.015-1.132,0.148-1.682c0.028-0.097,0.01-0.216,0.155-0.197
			c0.191,0.025,0.359-0.069,0.54-0.089c2.164-0.234,3.685-1.406,4.703-3.271c0.558-1.018,0.821-2.127,0.972-3.277
			c0.146-1.112,0.244-2.218-0.037-3.315c-0.207-0.806-0.926-1.53-1.862-1.469c-0.562,0.037-1.086,0.186-1.632,0.321
			c-0.008-0.95-0.167-1.853-0.377-2.738c-0.565-2.372-1.463-4.63-2.515-6.821c-0.863-1.8-1.832-3.547-3.309-4.943
			c-0.185-0.174-0.059-0.225,0.079-0.267c0.331-0.103,0.675-0.175,1.003-0.288c2.134-0.738,4.168-1.703,6.169-2.74
			c0.685-0.354,1.346-0.756,1.913-1.289c0.942-0.886,1.66-1.941,2.258-3.081c0.149-0.285,0.282-0.574,0.414-0.865l41.401,23.886
			V230.023z"/>
	</g>
</g>
<text transform="matrix(1 0 0 1 267.7217 215.127)" fill="#FFFFFF" font-family="'SourceSansPro-Bold'" font-size="140" letter-spacing="-7">ponyville</text>
<text transform="matrix(1 0 0 1 780.8867 216.4258)" fill="#3A7DC0" font-family="'SourceSansPro-Bold'" font-size="140" letter-spacing="-7">live!</text>
<text transform="matrix(1 0 0 1 546 252.1104)" fill="#BCBEC0" font-family="'SourceSansPro-Bold'" font-size="35">bringing pony people together</text>
</svg>
